<svg width="20" height="22" viewBox="0 0 20 22" fill="none" xmlns="http://www.w3.org/2000/svg">
<path d="M10 21.8337C4.477 21.8337 0 16.9836 0 11.0003C0 5.01708 4.477 0.166992 10 0.166992C15.523 0.166992 20 5.01708 20 11.0003C19.994 16.9803 15.52 21.8272 10 21.8337ZM5.727 14.0196C5.598 14.0196 5.47 14.0369 5.344 14.0694L5.194 14.1138L4.6 15.2156C4.4915 15.4116 4.45666 15.6454 4.50268 15.8685C4.5487 16.0916 4.67206 16.287 4.84727 16.4144C5.02249 16.5417 5.23618 16.5913 5.44419 16.5529C5.6522 16.5145 5.83864 16.391 5.965 16.2079L6.027 16.1072L6.817 14.6219C6.68896 14.4364 6.52304 14.2855 6.33221 14.181C6.14138 14.0765 5.93082 14.0213 5.717 14.0196H5.727ZM11.211 7.38199C10.8999 7.69862 10.6936 8.11739 10.624 8.57366C10.5125 9.20279 10.6193 9.85436 10.924 10.4034L13.964 16.1082C14.0698 16.3011 14.2385 16.4439 14.4368 16.5085C14.6351 16.5731 14.8486 16.5548 15.035 16.4571C15.2209 16.3578 15.3653 16.1861 15.4395 15.9765C15.5136 15.7668 15.512 15.5345 15.435 15.3261L15.386 15.2177L14.586 13.7108H15.776C15.9844 13.7089 16.1844 13.6215 16.3356 13.4661C16.4868 13.3107 16.5779 13.0989 16.5906 12.8736C16.6033 12.6482 16.5366 12.426 16.4039 12.2519C16.2713 12.0777 16.0826 11.9646 15.876 11.9352L15.776 11.9287H13.636L11.442 7.81208L11.213 7.37874L11.211 7.38199ZM4.26 11.9212C4.15254 11.9214 4.04619 11.9447 3.94704 11.9896C3.84788 12.0344 3.75788 12.1001 3.68217 12.1827C3.60646 12.2653 3.54655 12.3633 3.50585 12.471C3.46515 12.5788 3.44447 12.6942 3.445 12.8106C3.445 13.2591 3.753 13.6382 4.164 13.6957L4.264 13.7011H11.744C11.8268 13.521 11.8684 13.322 11.8655 13.1209C11.8625 12.9197 11.815 12.7223 11.727 12.5452C11.6521 12.3792 11.5406 12.2359 11.4022 12.128C11.2639 12.0201 11.103 11.9509 10.934 11.9266L10.813 11.9201H8.262L11.79 5.30199C11.8987 5.09684 11.9281 4.85349 11.872 4.62491C11.8321 4.4645 11.7516 4.31935 11.6396 4.20579C11.5277 4.09223 11.3887 4.01477 11.2384 3.98212C11.088 3.94947 10.9322 3.96293 10.7885 4.02099C10.6448 4.07905 10.5189 4.1794 10.425 4.31074L10.363 4.41041L10 5.09724L9.641 4.41041C9.53519 4.21729 9.36629 4.07427 9.16775 4.00967C8.96922 3.94506 8.75553 3.96359 8.569 4.06158C8.38321 4.1613 8.23889 4.33315 8.16477 4.54293C8.09065 4.75271 8.09216 4.98503 8.169 5.19366L8.218 5.30199L9.048 6.88366L6.363 11.9212H4.26Z" fill="white"/>
</svg>
