<svg width="32" height="32" viewBox="0 0 32 32" fill="none" xmlns="http://www.w3.org/2000/svg">
<path fill-rule="evenodd" clip-rule="evenodd" d="M28 16.0725C28 9.40567 22.6268 4 16 4C9.37321 4 4 9.40567 4 16.0725C4 22.098 8.3875 27.0924 14.125 27.9989V19.5633H11.0773V16.0725H14.125V13.4128C14.125 10.3876 15.917 8.71528 18.6577 8.71528C19.9707 8.71528 21.3443 8.95134 21.3443 8.95134V11.9226H19.8304C18.3405 11.9226 17.8745 12.8528 17.8745 13.8089V16.0725H21.2023L20.6709 19.5633H17.875V28C23.6125 27.094 28 22.0996 28 16.0725V16.0725Z" fill="#FDFDFD"/>
</svg>
