<svg width="95" height="39" viewBox="0 0 95 39" fill="none" xmlns="http://www.w3.org/2000/svg">
<g clip-path="url(#clip0)">
<path d="M22.0858 0.204589C21.9376 0.0996741 21.7656 0.0322624 21.5849 0.00824906C21.4042 -0.0157643 21.2204 0.00435197 21.0494 0.0668387L21.0567 0.064422L7.51813 4.82284C7.29906 4.90025 7.10951 5.04267 6.97541 5.23062C6.84131 5.41857 6.76919 5.64288 6.76891 5.87288V21.3879C6.077 21.0142 5.30113 20.8184 4.51269 20.8188H4.51147C3.36722 20.7731 2.25105 21.1761 1.40592 21.9402C0.560799 22.7042 0.0551416 23.7673 -0.000976562 24.8981V24.9078C0.0529425 26.0418 0.558758 27.1086 1.40592 27.875C2.25307 28.6415 3.37268 29.0452 4.52002 28.998H4.51147C5.65572 29.0436 6.77189 28.6406 7.61701 27.8766C8.46214 27.1126 8.96779 26.0494 9.02391 24.9186V9.342L20.305 5.44755V16.2899C19.6127 15.9172 18.8371 15.722 18.0488 15.722H18.0476C16.9034 15.676 15.7872 16.079 14.9421 16.8431C14.0971 17.6072 13.5918 18.6705 13.5364 19.8013V19.811C13.59 20.9452 14.0957 22.0122 14.9429 22.7787C15.7901 23.5452 16.9099 23.9488 18.0574 23.9012H18.0488L18.1771 23.9036C19.1636 23.9036 20.1219 23.5779 20.8998 22.9781C21.6776 22.3782 22.2306 21.5387 22.4708 20.5928L22.4769 20.5626C22.5315 20.4323 22.5601 20.2928 22.5612 20.1518V1.11567C22.5614 0.937765 22.5185 0.76241 22.4359 0.604307C22.3534 0.446205 22.2338 0.309963 22.087 0.207005L22.0834 0.204589H22.0858Z" fill="#0B3441"/>
</g>
<path d="M42.84 15.536L34.296 35.408H29.184L32.4 28.424L26.88 15.536H32.112L34.944 23.168L37.68 15.536H42.84ZM57.8466 15.536V29H53.1186V27.08C52.7186 27.688 52.1666 28.184 51.4626 28.568C50.7586 28.936 49.9506 29.12 49.0386 29.12C47.4706 29.12 46.2306 28.608 45.3186 27.584C44.4226 26.544 43.9746 25.136 43.9746 23.36V15.536H48.6546V22.76C48.6546 23.528 48.8546 24.136 49.2546 24.584C49.6706 25.016 50.2146 25.232 50.8866 25.232C51.5746 25.232 52.1186 25.016 52.5186 24.584C52.9186 24.136 53.1186 23.528 53.1186 22.76V15.536H57.8466ZM66.2597 29.168C65.0437 29.168 63.9557 28.968 62.9957 28.568C62.0517 28.152 61.2997 27.592 60.7397 26.888C60.1957 26.168 59.8917 25.36 59.8277 24.464H64.3877C64.4517 24.896 64.6517 25.232 64.9877 25.472C65.3237 25.712 65.7397 25.832 66.2357 25.832C66.6197 25.832 66.9237 25.752 67.1477 25.592C67.3717 25.432 67.4837 25.224 67.4837 24.968C67.4837 24.632 67.2997 24.384 66.9317 24.224C66.5637 24.064 65.9557 23.888 65.1077 23.696C64.1477 23.504 63.3477 23.288 62.7077 23.048C62.0677 22.808 61.5077 22.416 61.0277 21.872C60.5637 21.328 60.3317 20.592 60.3317 19.664C60.3317 18.864 60.5477 18.144 60.9797 17.504C61.4117 16.848 62.0437 16.328 62.8757 15.944C63.7237 15.56 64.7397 15.368 65.9237 15.368C67.6837 15.368 69.0677 15.8 70.0757 16.664C71.0837 17.528 71.6677 18.664 71.8277 20.072H67.5797C67.4997 19.64 67.3077 19.312 67.0037 19.088C66.7157 18.848 66.3237 18.728 65.8277 18.728C65.4437 18.728 65.1477 18.8 64.9397 18.944C64.7477 19.088 64.6517 19.288 64.6517 19.544C64.6517 19.864 64.8357 20.112 65.2037 20.288C65.5717 20.448 66.1637 20.616 66.9797 20.792C67.9557 21 68.7637 21.232 69.4037 21.488C70.0597 21.744 70.6277 22.16 71.1077 22.736C71.6037 23.296 71.8517 24.064 71.8517 25.04C71.8517 25.824 71.6197 26.528 71.1557 27.152C70.7077 27.776 70.0597 28.272 69.2117 28.64C68.3797 28.992 67.3957 29.168 66.2597 29.168ZM76.5403 14.288C75.7083 14.288 75.0363 14.064 74.5243 13.616C74.0283 13.152 73.7803 12.576 73.7803 11.888C73.7803 11.184 74.0283 10.6 74.5243 10.136C75.0363 9.672 75.7083 9.44 76.5403 9.44C77.3563 9.44 78.0123 9.672 78.5083 10.136C79.0203 10.6 79.2763 11.184 79.2763 11.888C79.2763 12.576 79.0203 13.152 78.5083 13.616C78.0123 14.064 77.3563 14.288 76.5403 14.288ZM78.8683 15.536V29H74.1643V15.536H78.8683ZM80.7791 22.256C80.7791 20.864 81.0671 19.648 81.6431 18.608C82.2191 17.568 83.0191 16.768 84.0431 16.208C85.0831 15.648 86.2671 15.368 87.5951 15.368C89.3071 15.368 90.7471 15.84 91.9151 16.784C93.0831 17.712 93.8351 19.016 94.1711 20.696H89.1791C88.8911 19.816 88.3311 19.376 87.4991 19.376C86.9071 19.376 86.4351 19.624 86.0831 20.12C85.7471 20.6 85.5791 21.312 85.5791 22.256C85.5791 23.2 85.7471 23.92 86.0831 24.416C86.4351 24.912 86.9071 25.16 87.4991 25.16C88.3471 25.16 88.9071 24.72 89.1791 23.84H94.1711C93.8351 25.504 93.0831 26.808 91.9151 27.752C90.7471 28.696 89.3071 29.168 87.5951 29.168C86.2671 29.168 85.0831 28.888 84.0431 28.328C83.0191 27.768 82.2191 26.968 81.6431 25.928C81.0671 24.888 80.7791 23.664 80.7791 22.256Z" fill="#FF1F75"/>
<defs>
<clipPath id="clip0">
<rect width="22" height="29" fill="white"/>
</clipPath>
</defs>
</svg>
