<svg width="288" height="114" viewBox="0 0 288 114" fill="none" xmlns="http://www.w3.org/2000/svg">
<g clip-path="url(#clip0)">
<path d="M64.3617 0.596921C63.9298 0.291184 63.4286 0.094736 62.9021 0.0247573C62.3755 -0.0452214 61.8397 0.0134006 61.3414 0.195496L61.3628 0.188454L21.9093 14.0552C21.2709 14.2808 20.7186 14.6958 20.3278 15.2435C19.937 15.7912 19.7268 16.4449 19.726 17.1152V62.3283C17.7096 61.2392 15.4487 60.6688 13.151 60.6697H13.1474C9.81293 60.5367 6.56024 61.7112 4.09742 63.9377C1.6346 66.1641 0.161034 69.2622 -0.00250244 72.5575V72.5857C0.154626 75.8905 1.62865 78.9993 4.0974 81.2329C6.56615 83.4664 9.82885 84.6429 13.1724 84.5052H13.1474C16.482 84.6382 19.7347 83.4637 22.1975 81.2373C24.6603 79.0108 26.1339 75.9127 26.2974 72.6174V27.2247L59.1723 15.8757V47.472C57.1549 46.386 54.8944 45.817 52.5973 45.817H52.5937C49.2593 45.6831 46.0065 46.8574 43.544 49.0841C41.0816 51.3108 39.6091 54.4095 39.4474 57.7048V57.733C39.6036 61.0381 41.0773 64.1475 43.5463 66.3812C46.0152 68.6149 49.2785 69.7911 52.6222 69.6525H52.5973L52.9713 69.6595C55.8461 69.6596 58.6386 68.7102 60.9054 66.9623C63.1723 65.2143 64.7836 62.7679 65.4837 60.0113L65.5015 59.9232C65.6605 59.5435 65.7439 59.137 65.7473 58.726V3.25196C65.7478 2.73351 65.6226 2.2225 65.3821 1.76176C65.1416 1.30103 64.793 0.903998 64.3653 0.603963L64.3546 0.596921H64.3617Z" fill="#0B3441"/>
</g>
<path d="M129.464 44.392L103.472 104.44H85.976L96.2 82.984L79.28 44.392H97.064L104.696 64.984L111.824 44.392H129.464ZM175.311 44.392V85H159.327V78.808C158.079 80.728 156.399 82.288 154.287 83.488C152.223 84.688 149.751 85.288 146.871 85.288C142.215 85.288 138.567 83.728 135.927 80.608C133.335 77.488 132.039 73.264 132.039 67.936V44.392H147.951V65.92C147.951 67.84 148.455 69.376 149.463 70.528C150.519 71.632 151.911 72.184 153.639 72.184C155.415 72.184 156.807 71.632 157.815 70.528C158.823 69.376 159.327 67.84 159.327 65.92V44.392H175.311ZM200.602 85.504C196.762 85.504 193.354 84.88 190.378 83.632C187.45 82.384 185.122 80.656 183.394 78.448C181.666 76.24 180.682 73.744 180.442 70.96H195.778C195.97 72.16 196.474 73.048 197.29 73.624C198.154 74.2 199.234 74.488 200.53 74.488C201.346 74.488 201.994 74.32 202.474 73.984C202.954 73.6 203.194 73.144 203.194 72.616C203.194 71.704 202.69 71.056 201.682 70.672C200.674 70.288 198.97 69.856 196.57 69.376C193.642 68.8 191.218 68.176 189.298 67.504C187.426 66.832 185.77 65.68 184.33 64.048C182.938 62.416 182.242 60.16 182.242 57.28C182.242 54.784 182.89 52.528 184.186 50.512C185.53 48.448 187.498 46.84 190.09 45.688C192.682 44.488 195.826 43.888 199.522 43.888C204.994 43.888 209.266 45.232 212.338 47.92C215.458 50.608 217.33 54.112 217.954 58.432H203.77C203.53 57.328 203.026 56.488 202.258 55.912C201.49 55.288 200.458 54.976 199.162 54.976C198.346 54.976 197.722 55.144 197.29 55.48C196.858 55.768 196.642 56.224 196.642 56.848C196.642 57.664 197.146 58.288 198.154 58.72C199.162 59.104 200.77 59.512 202.978 59.944C205.906 60.52 208.378 61.168 210.394 61.888C212.41 62.608 214.162 63.856 215.65 65.632C217.138 67.36 217.882 69.76 217.882 72.832C217.882 75.232 217.186 77.392 215.794 79.312C214.402 81.232 212.386 82.744 209.746 83.848C207.154 84.952 204.106 85.504 200.602 85.504ZM232.289 41.152C229.505 41.152 227.273 40.408 225.593 38.92C223.913 37.432 223.073 35.56 223.073 33.304C223.073 31 223.913 29.104 225.593 27.616C227.273 26.08 229.505 25.312 232.289 25.312C235.025 25.312 237.233 26.08 238.913 27.616C240.593 29.104 241.433 31 241.433 33.304C241.433 35.56 240.593 37.432 238.913 38.92C237.233 40.408 235.025 41.152 232.289 41.152ZM240.209 44.392V85H224.225V44.392H240.209ZM245.268 64.696C245.268 60.472 246.132 56.8 247.86 53.68C249.636 50.512 252.084 48.088 255.204 46.408C258.372 44.728 261.972 43.888 266.004 43.888C271.284 43.888 275.724 45.376 279.324 48.352C282.972 51.328 285.276 55.456 286.236 60.736H269.316C268.692 58.624 267.468 57.568 265.644 57.568C264.348 57.568 263.316 58.168 262.548 59.368C261.828 60.568 261.468 62.344 261.468 64.696C261.468 67.048 261.828 68.824 262.548 70.024C263.316 71.224 264.348 71.824 265.644 71.824C267.468 71.824 268.692 70.768 269.316 68.656H286.236C285.276 73.936 282.972 78.064 279.324 81.04C275.724 84.016 271.284 85.504 266.004 85.504C261.972 85.504 258.372 84.664 255.204 82.984C252.084 81.304 249.636 78.904 247.86 75.784C246.132 72.616 245.268 68.92 245.268 64.696Z" fill="white"/>
<defs>
<clipPath id="clip0">
<rect width="64.1114" height="84.5104" fill="white"/>
</clipPath>
</defs>
</svg>
