<svg width="56" height="56" viewBox="0 0 56 56" fill="none" xmlns="http://www.w3.org/2000/svg">
<path d="M28 4.66666C15.134 4.66666 4.66666 15.134 4.66666 28C4.66666 40.866 15.134 51.3333 28 51.3333C40.866 51.3333 51.3333 40.866 51.3333 28C51.3333 15.134 40.866 4.66666 28 4.66666ZM28 46.6667C17.7077 46.6667 9.33333 38.2923 9.33333 28C9.33333 17.7077 17.7077 9.33332 28 9.33332C38.2923 9.33332 46.6667 17.7077 46.6667 28C46.6667 38.2923 38.2923 46.6667 28 46.6667Z" fill="#FF1F75"/>
<path d="M18.6667 37.3333L30.3333 28L18.6667 18.6667V37.3333ZM30.3333 28V37.3333H35V18.6667H30.3333V28Z" fill="#FF1F75"/>
</svg>
