<svg width="70" height="70" viewBox="0 0 70 70" fill="none" xmlns="http://www.w3.org/2000/svg">
<path d="M35 4.375C18.0879 4.375 4.375 18.0879 4.375 35C4.375 51.9121 18.0879 65.625 35 65.625C51.9121 65.625 65.625 51.9121 65.625 35C65.625 18.0879 51.9121 4.375 35 4.375ZM35 60.4297C20.959 60.4297 9.57031 49.041 9.57031 35C9.57031 20.959 20.959 9.57031 35 9.57031C49.041 9.57031 60.4297 20.959 60.4297 35C60.4297 49.041 49.041 60.4297 35 60.4297ZM28.9844 24.0625H25.7031C25.4023 24.0625 25.1562 24.3086 25.1562 24.6094V45.3906C25.1562 45.6914 25.4023 45.9375 25.7031 45.9375H28.9844C29.2852 45.9375 29.5312 45.6914 29.5312 45.3906V24.6094C29.5312 24.3086 29.2852 24.0625 28.9844 24.0625ZM44.2969 24.0625H41.0156C40.7148 24.0625 40.4688 24.3086 40.4688 24.6094V45.3906C40.4688 45.6914 40.7148 45.9375 41.0156 45.9375H44.2969C44.5977 45.9375 44.8438 45.6914 44.8438 45.3906V24.6094C44.8438 24.3086 44.5977 24.0625 44.2969 24.0625Z" fill="#FF1F75"/>
</svg>
