<svg width="70" height="70" viewBox="0 0 70 70" fill="none" xmlns="http://www.w3.org/2000/svg">
<path d="M35 4.375C18.0879 4.375 4.375 18.0879 4.375 35C4.375 51.9121 18.0879 65.625 35 65.625C51.9121 65.625 65.625 51.9121 65.625 35C65.625 18.0879 51.9121 4.375 35 4.375ZM35 60.4297C20.959 60.4297 9.57031 49.041 9.57031 35C9.57031 20.959 20.959 9.57031 35 9.57031C49.041 9.57031 60.4297 20.959 60.4297 35C60.4297 49.041 49.041 60.4297 35 60.4297Z" fill="#FF1F75"/>
<path d="M49.1778 34.1182L28.9366 19.4209C28.7742 19.3019 28.582 19.2303 28.3814 19.2141C28.1808 19.1979 27.9796 19.2378 27.8003 19.3292C27.6209 19.4206 27.4705 19.5601 27.3658 19.732C27.2611 19.9039 27.2061 20.1015 27.2071 20.3027V49.6973C27.2071 50.5928 28.2188 51.0986 28.9366 50.5791L49.1778 35.8818C49.3175 35.7811 49.4314 35.6487 49.5099 35.4953C49.5884 35.342 49.6293 35.1722 49.6293 35C49.6293 34.8277 49.5884 34.658 49.5099 34.5046C49.4314 34.3513 49.3175 34.2189 49.1778 34.1182V34.1182ZM31.5684 43.2783V26.7217L42.9639 35L31.5684 43.2783V43.2783Z" fill="#FF1F75"/>
</svg>
