<svg width="32" height="32" viewBox="0 0 32 32" fill="none" xmlns="http://www.w3.org/2000/svg">
<path d="M28 8.48828C27.0997 8.91613 26.1472 9.19801 25.1725 9.325C26.1968 8.66896 26.9672 7.62672 27.339 6.39376C26.3705 7.01314 25.3128 7.44773 24.211 7.67891C23.747 7.14709 23.1891 6.72402 22.571 6.4354C21.9529 6.14678 21.2876 5.99865 20.6155 6.00001C17.8945 6.00001 15.6925 8.37344 15.6925 11.2992C15.6906 11.7062 15.7332 12.1119 15.8195 12.5078C13.8683 12.4078 11.9578 11.8634 10.21 10.9094C8.46222 9.9555 6.91574 8.61306 5.6695 6.96797C5.23229 7.77413 5.00107 8.69393 5 9.63125C5 11.4687 5.8765 13.093 7.2 14.0445C6.41586 14.0242 5.6478 13.7972 4.961 13.3828V13.4484C4.961 16.0187 6.661 18.157 8.911 18.6437C8.48789 18.7671 8.05188 18.8296 7.614 18.8297C7.30329 18.8303 6.99328 18.7973 6.6885 18.7312C7.314 20.8367 9.1345 22.3679 11.291 22.4117C9.53869 23.8887 7.38731 24.6871 5.175 24.6812C4.78231 24.6806 4.38998 24.655 4 24.6046C6.25059 26.1765 8.86672 27.0079 11.537 26.9999C20.605 26.9999 25.559 18.9226 25.559 11.9172C25.559 11.6875 25.5535 11.4578 25.5435 11.2336C26.505 10.4855 27.3369 9.55584 28 8.48828V8.48828Z" fill="#FDFDFD"/>
</svg>
