<svg width="36" height="36" viewBox="0 0 36 36" fill="none" xmlns="http://www.w3.org/2000/svg">
<path d="M23.41 25.11C23.1914 25.1129 22.9779 25.0441 22.8021 24.9141C22.6263 24.7841 22.498 24.6001 22.4367 24.3903C22.3754 24.1804 22.3846 23.9563 22.4629 23.7521C22.5412 23.548 22.6842 23.3751 22.87 23.26C23.7799 22.692 24.5273 21.8981 25.0391 20.9554C25.551 20.0128 25.81 18.9537 25.7909 17.8812C25.7717 16.8087 25.4751 15.7595 24.93 14.8357C24.3848 13.9119 23.6096 13.1451 22.68 12.61C22.5605 12.5475 22.4549 12.4614 22.3695 12.357C22.2841 12.2526 22.2207 12.1321 22.1831 12.0025C22.1455 11.873 22.1346 11.7372 22.1508 11.6033C22.1671 11.4694 22.2103 11.3402 22.2778 11.2235C22.3452 11.1067 22.4357 11.0048 22.5436 10.9239C22.6515 10.843 22.7746 10.7847 22.9056 10.7526C23.0366 10.7205 23.1727 10.7153 23.3058 10.7372C23.4389 10.7591 23.5662 10.8076 23.68 10.88C24.9186 11.5842 25.9526 12.5986 26.6803 13.8234C27.4081 15.0483 27.8046 16.4414 27.8308 17.866C27.857 19.2905 27.5121 20.6973 26.8299 21.9481C26.1477 23.1989 25.1518 24.2507 23.94 25C23.7768 25.0847 23.5934 25.1227 23.41 25.11Z" fill="#FF1F75"/>
<path d="M18 32C17.7361 32.0002 17.4747 31.9482 17.231 31.8469C16.9873 31.7457 16.7661 31.5972 16.58 31.41L9.14 24H4C3.46957 24 2.96086 23.7893 2.58579 23.4142C2.21071 23.0392 2 22.5304 2 22V14C2 13.4696 2.21071 12.9609 2.58579 12.5858C2.96086 12.2107 3.46957 12 4 12H9.22L16.55 4.59001C16.8273 4.29796 17.1864 4.09644 17.5802 4.01184C17.9739 3.92724 18.3841 3.9635 18.7569 4.11587C19.1297 4.26825 19.4479 4.52963 19.6697 4.86581C19.8915 5.20199 20.0066 5.59731 20 6.00001V30C20 30.3966 19.8821 30.7842 19.6613 31.1136C19.4405 31.443 19.1268 31.6993 18.76 31.85C18.5189 31.9491 18.2607 32 18 32ZM4 14V22H9.56C9.82438 21.9958 10.0797 22.0965 10.27 22.28L18 30V6.00001L10.35 13.68C10.2574 13.7745 10.1469 13.8497 10.0251 13.9012C9.90319 13.9527 9.77231 13.9795 9.64 13.98L4 14Z" fill="#FF1F75"/>
</svg>
