<svg width="32" height="32" viewBox="0 0 32 32" fill="none" xmlns="http://www.w3.org/2000/svg">
<path d="M27.4975 9.6673C27.3616 9.15255 27.0969 8.68653 26.7316 8.31876C26.3559 7.93969 25.8955 7.66853 25.3937 7.53088C23.516 7.00527 15.993 7.00527 15.993 7.00527C12.8568 6.96737 9.72128 7.13404 6.60427 7.50433C6.10252 7.65215 5.64296 7.92937 5.26645 8.31133C4.8965 8.68935 4.62853 9.15549 4.48855 9.66624C4.15229 11.59 3.98891 13.5434 4.00062 15.5C3.98862 17.4548 4.1516 19.4076 4.48855 21.3337C4.62553 21.8424 4.8925 22.3064 5.26345 22.6812C5.6344 23.0561 6.09634 23.3268 6.60427 23.4702C8.50701 23.9947 15.993 23.9947 15.993 23.9947C19.1332 24.0327 22.2727 23.866 25.3937 23.4957C25.8955 23.358 26.3559 23.0868 26.7316 22.7078C27.1015 22.3329 27.3645 21.8668 27.4965 21.3592C27.8415 19.4362 28.0093 17.482 27.9974 15.5244C28.0233 13.5585 27.8558 11.5951 27.4975 9.66624V9.6673ZM13.6013 19.1357V11.8653L19.8605 15.5011L13.6013 19.1357Z" fill="white"/>
</svg>
